<?xml version="1.0" encoding="us-ascii" standalone="no"?><svg xmlns="http://www.w3.org/2000/svg" xmlns:xlink="http://www.w3.org/1999/xlink" contentStyleType="text/css" height="682px" preserveAspectRatio="none" style="width:423px;height:682px;background:#FFFFFF;" version="1.1" viewBox="0 0 423 682" width="423px" zoomAndPan="magnify"><defs/><g><text fill="#000000" font-family="sans-serif" font-size="14" font-weight="bold" lengthAdjust="spacing" textLength="395" x="10" y="27.9951">&#1058;&#1077;&#1089;&#1090;&#1086;&#1074;&#1099;&#1081; &#1089;&#1094;&#1077;&#1085;&#1072;&#1088;&#1080;&#1081; &#1074;&#1074;&#1086;&#1076;&#1072; &#1080; &#1082;&#1086;&#1088;&#1088;&#1077;&#1082;&#1094;&#1080;&#1080; &#1086;&#1096;&#1080;&#1073;&#1082;&#1080;</text><line style="stroke:#181818;stroke-width:0.5;stroke-dasharray:5.0,5.0;" x1="63" x2="63" y1="90.5938" y2="630.4531"/><line style="stroke:#181818;stroke-width:0.5;stroke-dasharray:5.0,5.0;" x1="311" x2="311" y1="90.5938" y2="630.4531"/><rect fill="#E2E2F0" height="30.2969" rx="2.5" ry="2.5" style="stroke:#181818;stroke-width:0.5;" width="49" x="39" y="59.2969"/><text fill="#000000" font-family="sans-serif" font-size="14" lengthAdjust="spacing" textLength="35" x="46" y="79.292">&#1061;&#1086;&#1089;&#1090;</text><rect fill="#E2E2F0" height="30.2969" rx="2.5" ry="2.5" style="stroke:#181818;stroke-width:0.5;" width="49" x="39" y="629.4531"/><text fill="#000000" font-family="sans-serif" font-size="14" lengthAdjust="spacing" textLength="35" x="46" y="649.4482">&#1061;&#1086;&#1089;&#1090;</text><text fill="#000000" font-family="sans-serif" font-size="14" lengthAdjust="spacing" textLength="125" x="246" y="87.292">&#1050;&#1086;&#1085;&#1090;&#1088;&#1086;&#1083;&#1083;&#1077;&#1088; SEM</text><ellipse cx="311.5" cy="58.2969" fill="#E2E2F0" rx="12" ry="12" style="stroke:#181818;stroke-width:0.5;"/><line style="stroke:#181818;stroke-width:0.5;" x1="299.5" x2="323.5" y1="72.2969" y2="72.2969"/><text fill="#000000" font-family="sans-serif" font-size="14" lengthAdjust="spacing" textLength="125" x="246" y="642.4482">&#1050;&#1086;&#1085;&#1090;&#1088;&#1086;&#1083;&#1083;&#1077;&#1088; SEM</text><ellipse cx="311.5" cy="661.75" fill="#E2E2F0" rx="12" ry="12" style="stroke:#181818;stroke-width:0.5;"/><line style="stroke:#181818;stroke-width:0.5;" x1="299.5" x2="323.5" y1="675.75" y2="675.75"/><polygon fill="#181818" points="299.5,117.7266,309.5,121.7266,299.5,125.7266,303.5,121.7266" style="stroke:#181818;stroke-width:1.0;"/><line style="stroke:#181818;stroke-width:1.0;" x1="63.5" x2="305.5" y1="121.7266" y2="121.7266"/><text fill="#000000" font-family="sans-serif" font-size="13" lengthAdjust="spacing" textLength="97" x="139" y="116.6606">MOVE_TO_IDLE</text><polygon fill="#181818" points="74.5,131.7266,64.5,135.7266,74.5,139.7266,70.5,135.7266" style="stroke:#181818;stroke-width:1.0;"/><line style="stroke:#181818;stroke-width:1.0;stroke-dasharray:2.0,2.0;" x1="68.5" x2="310.5" y1="135.7266" y2="135.7266"/><rect fill="#EEEEEE" height="3" style="stroke:#EEEEEE;stroke-width:1.0;" width="348" x="34" y="164.293"/><line style="stroke:#000000;stroke-width:1.0;" x1="34" x2="382" y1="164.293" y2="164.293"/><line style="stroke:#000000;stroke-width:1.0;" x1="34" x2="382" y1="167.293" y2="167.293"/><rect fill="#EEEEEE" height="23.1328" style="stroke:#000000;stroke-width:2.0;" width="121" x="147.5" y="153.7266"/><text fill="#000000" font-family="sans-serif" font-size="13" font-weight="bold" lengthAdjust="spacing" textLength="102" x="153.5" y="169.7935">&#1042;&#1074;&#1086;&#1076; &#1086;&#1096;&#1080;&#1073;&#1082;&#1080;</text><polygon fill="#181818" points="299.5,203.9922,309.5,207.9922,299.5,211.9922,303.5,207.9922" style="stroke:#181818;stroke-width:1.0;"/><line style="stroke:#181818;stroke-width:1.0;" x1="63.5" x2="305.5" y1="207.9922" y2="207.9922"/><text fill="#000000" font-family="sans-serif" font-size="13" lengthAdjust="spacing" textLength="71" x="152" y="202.9263">DO_QUARY</text><polygon fill="#181818" points="74.5,233.125,64.5,237.125,74.5,241.125,70.5,237.125" style="stroke:#181818;stroke-width:1.0;"/><line style="stroke:#181818;stroke-width:1.0;stroke-dasharray:2.0,2.0;" x1="68.5" x2="310.5" y1="237.125" y2="237.125"/><text fill="#000000" font-family="sans-serif" font-size="13" lengthAdjust="spacing" textLength="158" x="108.5" y="232.0591">&#1050;&#1072;&#1076;&#1088; &#1076;&#1086; &#1074;&#1074;&#1086;&#1076;&#1072; &#1086;&#1096;&#1080;&#1073;&#1082;&#1080;</text><polygon fill="#181818" points="299.5,262.2578,309.5,266.2578,299.5,270.2578,303.5,266.2578" style="stroke:#181818;stroke-width:1.0;"/><line style="stroke:#181818;stroke-width:1.0;" x1="63.5" x2="305.5" y1="266.2578" y2="266.2578"/><text fill="#000000" font-family="sans-serif" font-size="13" lengthAdjust="spacing" textLength="90" x="142.5" y="261.1919">DO_INJECTION</text><polygon fill="#181818" points="74.5,276.2578,64.5,280.2578,74.5,284.2578,70.5,280.2578" style="stroke:#181818;stroke-width:1.0;"/><line style="stroke:#181818;stroke-width:1.0;stroke-dasharray:2.0,2.0;" x1="68.5" x2="310.5" y1="280.2578" y2="280.2578"/><polygon fill="#181818" points="299.5,305.3906,309.5,309.3906,299.5,313.3906,303.5,309.3906" style="stroke:#181818;stroke-width:1.0;"/><line style="stroke:#181818;stroke-width:1.0;" x1="63.5" x2="305.5" y1="309.3906" y2="309.3906"/><text fill="#000000" font-family="sans-serif" font-size="13" lengthAdjust="spacing" textLength="71" x="152" y="304.3247">DO_QUARY</text><polygon fill="#181818" points="74.5,334.5234,64.5,338.5234,74.5,342.5234,70.5,338.5234" style="stroke:#181818;stroke-width:1.0;"/><line style="stroke:#181818;stroke-width:1.0;stroke-dasharray:2.0,2.0;" x1="68.5" x2="310.5" y1="338.5234" y2="338.5234"/><text fill="#000000" font-family="sans-serif" font-size="13" lengthAdjust="spacing" textLength="179" x="98" y="333.4575">&#1050;&#1072;&#1076;&#1088; &#1087;&#1086;&#1089;&#1083;&#1077; &#1074;&#1074;&#1086;&#1076;&#1072; &#1086;&#1096;&#1080;&#1073;&#1082;&#1080;</text><rect fill="#EEEEEE" height="3" style="stroke:#EEEEEE;stroke-width:1.0;" width="348" x="34" y="367.0898"/><line style="stroke:#000000;stroke-width:1.0;" x1="34" x2="382" y1="367.0898" y2="367.0898"/><line style="stroke:#000000;stroke-width:1.0;" x1="34" x2="382" y1="370.0898" y2="370.0898"/><rect fill="#EEEEEE" height="23.1328" style="stroke:#000000;stroke-width:2.0;" width="184" x="116" y="356.5234"/><text fill="#000000" font-family="sans-serif" font-size="13" font-weight="bold" lengthAdjust="spacing" textLength="165" x="122" y="372.5903">&#1048;&#1089;&#1087;&#1088;&#1072;&#1074;&#1083;&#1077;&#1085;&#1080;&#1077; &#1086;&#1096;&#1080;&#1073;&#1082;&#1080;</text><polygon fill="#181818" points="299.5,406.7891,309.5,410.7891,299.5,414.7891,303.5,410.7891" style="stroke:#181818;stroke-width:1.0;"/><line style="stroke:#181818;stroke-width:1.0;" x1="63.5" x2="305.5" y1="410.7891" y2="410.7891"/><text fill="#000000" font-family="sans-serif" font-size="13" lengthAdjust="spacing" textLength="161" x="107" y="405.7231">MOVE_TO_OBSERVATION</text><polygon fill="#181818" points="74.5,435.9219,64.5,439.9219,74.5,443.9219,70.5,439.9219" style="stroke:#181818;stroke-width:1.0;"/><line style="stroke:#181818;stroke-width:1.0;stroke-dasharray:2.0,2.0;" x1="68.5" x2="310.5" y1="439.9219" y2="439.9219"/><text fill="#000000" font-family="sans-serif" font-size="13" lengthAdjust="spacing" textLength="210" x="82.5" y="434.856">&#1054;&#1090;&#1095;&#1077;&#1090; &#1086;&#1073; &#1080;&#1089;&#1087;&#1088;&#1072;&#1074;&#1083;&#1077;&#1085;&#1080;&#1080; &#1086;&#1096;&#1080;&#1073;&#1082;&#1080;</text><polygon fill="#181818" points="299.5,465.0547,309.5,469.0547,299.5,473.0547,303.5,469.0547" style="stroke:#181818;stroke-width:1.0;"/><line style="stroke:#181818;stroke-width:1.0;" x1="63.5" x2="305.5" y1="469.0547" y2="469.0547"/><text fill="#000000" font-family="sans-serif" font-size="13" lengthAdjust="spacing" textLength="97" x="139" y="463.9888">MOVE_TO_IDLE</text><polygon fill="#181818" points="74.5,479.0547,64.5,483.0547,74.5,487.0547,70.5,483.0547" style="stroke:#181818;stroke-width:1.0;"/><line style="stroke:#181818;stroke-width:1.0;stroke-dasharray:2.0,2.0;" x1="68.5" x2="310.5" y1="483.0547" y2="483.0547"/><polygon fill="#181818" points="299.5,508.1875,309.5,512.1875,299.5,516.1875,303.5,512.1875" style="stroke:#181818;stroke-width:1.0;"/><line style="stroke:#181818;stroke-width:1.0;" x1="63.5" x2="305.5" y1="512.1875" y2="512.1875"/><text fill="#000000" font-family="sans-serif" font-size="13" lengthAdjust="spacing" textLength="71" x="152" y="507.1216">DO_QUARY</text><polygon fill="#181818" points="74.5,537.3203,64.5,541.3203,74.5,545.3203,70.5,541.3203" style="stroke:#181818;stroke-width:1.0;"/><line style="stroke:#181818;stroke-width:1.0;stroke-dasharray:2.0,2.0;" x1="68.5" x2="310.5" y1="541.3203" y2="541.3203"/><text fill="#000000" font-family="sans-serif" font-size="13" lengthAdjust="spacing" textLength="224" x="75.5" y="536.2544">&#1050;&#1072;&#1076;&#1088; &#1087;&#1086;&#1089;&#1083;&#1077; &#1080;&#1089;&#1087;&#1088;&#1072;&#1074;&#1083;&#1077;&#1085;&#1080;&#1103; &#1086;&#1096;&#1080;&#1073;&#1082;&#1080;</text><rect fill="#EEEEEE" height="3" style="stroke:#EEEEEE;stroke-width:1.0;" width="348" x="34" y="562.3203"/><line style="stroke:#000000;stroke-width:1.0;" x1="34" x2="382" y1="562.3203" y2="562.3203"/><line style="stroke:#000000;stroke-width:1.0;" x1="34" x2="382" y1="565.3203" y2="565.3203"/><polygon fill="#181818" points="299.5,594.4531,309.5,598.4531,299.5,602.4531,303.5,598.4531" style="stroke:#181818;stroke-width:1.0;"/><line style="stroke:#181818;stroke-width:1.0;" x1="63.5" x2="305.5" y1="598.4531" y2="598.4531"/><text fill="#000000" font-family="sans-serif" font-size="13" lengthAdjust="spacing" textLength="159" x="108" y="593.3872">MOVE_TO_DETECT_ONLY</text><polygon fill="#181818" points="74.5,608.4531,64.5,612.4531,74.5,616.4531,70.5,612.4531" style="stroke:#181818;stroke-width:1.0;"/><line style="stroke:#181818;stroke-width:1.0;stroke-dasharray:2.0,2.0;" x1="68.5" x2="310.5" y1="612.4531" y2="612.4531"/><!--SRC=[hLB1IiD04BttAuRS-mDYXMfpgBGDjhNWAOImbCKsr2OAtceFAdWGF8a73uBtj3IGjZJzXTa_yYMrQYM179g5JRBpzhsPDqD4v4cl9uW_E51tQimHJzKJpma_znpmYdqruX07FCMAUCO-SKYyu4YD40fu0M0O7qNg4HyJXC82Y2dP1jRGaxOSM8v76dy211MDVX_B9RidXUCbSBobTxk9QFm6mPKQGoRY9LQWHjJIwrfyoHN36p4i9BVSI-b0oEfJIrnT2ySMTU6wLbUKUxBhz45ADhOjVAD7nIFwPg43gXiTtMmRPhLIq_-23el57QbIYVXbuyHEnGXaarSCy-oytBn89mO0bVeyGtNmDzgn-h-f6VJLngb-qguQZOpSzv3PEkvTt8JC_7uCUWLmZQxvm2sJAGhZQtdjslR2E6xfpKuvkwmultVCnmCcOmn-dc0sKxJ3V3xcc87z-fYIgtfEzpIFNnMzZI4mZKOj8uyl]--></g></svg>